<svg version="1.0" xmlns="http://www.w3.org/2000/svg" width="700.000000pt" height="211.000000pt" viewBox="0 0 700.000000 211.000000" preserveAspectRatio="xMidYMid meet">
<metadata>
Created by potrace 1.12, written by Peter Selinger 2001-2015
</metadata>
<g transform="translate(0.000000,211.000000) scale(0.100000,-0.100000)" fill="#000000" stroke="none">
<path d="M602 1744 c-18 -8 -36 -22 -39 -32 -3 -9 -12 -24 -19 -33 -11 -13
-10 -21 12 -52 13 -20 31 -37 38 -37 8 0 19 -7 26 -15 11 -13 16 -13 44 1 41
21 86 64 86 82 0 24 -49 82 -70 82 -10 0 -22 5 -25 10 -8 12 -12 12 -53 -6z"></path>
<path d="M1952 1682 c-11 -7 -13 -109 -13 -513 l0 -504 76 -3 c61 -2 76 0 81
13 4 8 1 21 -5 28 -7 9 -13 95 -17 224 -5 197 -4 214 15 255 10 24 28 51 38
60 27 24 115 68 136 68 37 0 85 -29 107 -66 24 -37 24 -41 22 -283 -1 -135 -4
-259 -8 -274 l-6 -28 77 3 77 3 -1 310 c-1 297 -2 311 -21 324 -11 7 -20 22
-20 33 0 10 -8 22 -17 25 -10 4 -25 16 -34 27 -15 19 -27 21 -117 20 -93 -1
-103 -3 -131 -27 -35 -29 -88 -44 -103 -29 -6 6 -11 77 -12 174 l-1 163 -55 3
c-30 1 -61 -2 -68 -6z"></path>
<path d="M523 1403 l-203 -3 0 -35 c0 -18 4 -45 9 -58 9 -24 9 -24 134 -19
l125 5 17 -26 c15 -23 16 -56 13 -296 -3 -261 -4 -270 -25 -300 -13 -17 -23
-34 -23 -38 0 -9 -64 -73 -73 -73 -3 0 -23 -11 -43 -25 -20 -14 -48 -25 -61
-25 -14 0 -37 -9 -52 -19 -15 -11 -42 -21 -61 -23 -43 -4 -50 -26 -20 -68 21
-30 22 -30 88 -24 44 4 73 13 84 24 9 10 37 21 62 24 30 5 49 14 56 27 6 10
16 19 21 19 22 0 129 102 129 123 0 11 11 37 25 56 l24 36 1 352 c1 194 -1
357 -5 363 -3 5 -9 9 -13 8 -4 -2 -98 -4 -209 -5z"></path>
<path d="M1131 1395 c-4 -5 -5 -35 -2 -65 l6 -55 151 -1 c83 0 159 -4 168 -7
25 -10 19 -40 -14 -72 -16 -16 -30 -34 -30 -39 0 -6 -31 -45 -68 -88 -37 -42
-78 -93 -92 -113 -14 -20 -46 -60 -72 -88 -26 -29 -48 -56 -48 -61 0 -6 -9
-19 -19 -30 -12 -13 -21 -39 -23 -66 l-3 -45 270 -3 c149 -1 281 0 293 3 20 5
23 10 17 32 -4 17 -1 31 11 44 9 10 14 25 11 33 -5 13 -37 16 -189 18 -181 3
-183 3 -186 26 -2 14 7 33 25 51 15 15 39 47 53 69 14 23 33 44 43 47 9 4 17
13 17 20 0 8 11 22 25 31 14 9 25 22 25 28 0 7 11 23 25 36 14 13 25 29 25 36
0 8 20 34 45 58 25 25 45 49 45 53 0 4 8 16 19 27 23 26 37 115 18 121 -27 10
-539 10 -546 0z"></path>
<path d="M2949 1383 c-15 -13 -34 -23 -42 -23 -15 0 -87 -85 -87 -103 0 -6
-10 -21 -22 -35 -22 -23 -23 -30 -22 -198 1 -165 2 -176 22 -195 12 -11 22
-24 22 -30 0 -14 63 -89 74 -89 6 0 23 -12 38 -27 28 -27 29 -27 178 -27 141
0 151 1 170 22 12 12 31 22 43 22 13 0 32 7 43 15 19 15 19 16 -3 31 -13 9
-23 22 -23 29 0 39 -46 36 -127 -8 -40 -21 -138 -22 -173 -2 -14 8 -34 18 -46
24 -35 16 -76 80 -82 127 -8 75 -11 74 253 74 196 0 235 2 245 15 10 13 10 19
-3 33 -10 11 -18 48 -22 104 -5 57 -12 92 -22 99 -8 7 -20 27 -28 46 -8 18
-18 33 -22 33 -5 0 -28 19 -52 42 l-43 41 -121 1 c-112 1 -123 -1 -148 -21z
m237 -104 c46 -36 63 -64 64 -102 0 -16 5 -38 11 -49 10 -18 8 -24 -9 -38 -17
-14 -44 -17 -169 -16 -81 1 -154 5 -160 9 -24 15 -15 90 17 140 16 26 36 47
43 47 8 0 22 9 32 20 14 16 31 20 75 20 49 0 63 -5 96 -31z"></path>
<path d="M3644 1397 c-38 -22 4 -107 54 -107 12 0 31 -9 42 -20 19 -19 20 -33
20 -248 0 -167 -3 -232 -12 -244 -7 -9 -33 -20 -58 -25 -35 -7 -48 -15 -59
-37 -24 -51 -9 -55 207 -57 107 -1 197 2 202 7 4 5 5 27 1 49 l-7 40 -51 -3
c-41 -3 -55 0 -72 17 -19 19 -21 32 -21 162 0 139 7 174 36 192 8 4 14 16 14
25 1 39 98 122 144 122 47 0 60 -20 53 -79 -7 -62 6 -77 59 -64 l36 8 4 74 c2
40 7 78 13 84 5 7 12 33 16 58 5 34 3 47 -7 51 -7 2 -58 3 -114 0 l-101 -4
-44 -43 c-24 -23 -51 -52 -59 -65 -30 -44 -80 0 -80 71 0 16 -6 31 -12 34 -25
8 -190 10 -204 2z"></path>
<path d="M4829 1338 c-38 -38 -73 -68 -78 -68 -18 0 -42 46 -44 86 l-2 39
-113 3 c-97 2 -113 0 -119 -14 -3 -9 -1 -25 5 -35 7 -10 12 -28 12 -39 0 -17
7 -20 44 -20 70 0 70 -1 69 -261 -1 -126 -4 -238 -8 -248 -4 -13 -19 -22 -48
-26 -65 -11 -79 -22 -75 -58 l3 -32 205 0 205 0 3 34 c5 45 -9 56 -74 56 -38
0 -58 5 -64 15 -5 8 -10 83 -10 166 0 136 2 154 20 176 11 14 24 37 29 51 6
14 33 44 62 67 43 34 59 40 88 38 l36 -3 5 -70 5 -69 37 -2 c20 0 41 2 46 5 5
3 12 42 15 86 3 44 13 99 23 123 25 61 15 67 -108 67 l-101 0 -68 -67z"></path>
<path d="M5475 1401 c-106 -9 -138 -38 -119 -108 5 -19 13 -23 44 -23 20 0 52
8 71 17 58 29 127 29 185 -1 63 -32 74 -45 81 -96 8 -57 -7 -70 -78 -70 -33 0
-67 -4 -77 -9 -24 -14 -105 -31 -142 -31 -19 0 -39 -9 -53 -23 -12 -12 -34
-30 -49 -40 -17 -11 -28 -26 -28 -40 0 -12 -9 -37 -20 -55 -11 -18 -20 -40
-20 -48 0 -30 55 -156 70 -162 8 -3 25 -17 37 -31 21 -26 23 -26 147 -26 113
1 128 3 148 22 56 51 85 54 131 14 22 -20 46 -31 72 -33 38 -3 39 -2 47 37 8
34 6 42 -11 56 -36 30 -41 64 -41 304 0 226 -1 235 -20 245 -12 6 -25 22 -30
36 -6 14 -18 24 -29 24 -10 0 -25 9 -32 19 -12 16 -31 20 -114 23 -55 3 -131
2 -170 -1z m249 -393 c25 -35 22 -158 -5 -192 -11 -14 -25 -26 -31 -26 -5 0
-21 -9 -35 -20 -37 -29 -140 -28 -176 0 -50 39 -58 158 -13 198 36 32 123 59
198 61 38 1 50 -3 62 -21z"></path>
<path d="M6525 1403 c-69 -3 -94 -8 -110 -22 -11 -10 -37 -28 -58 -41 -43 -25
-56 -20 -61 26 -3 29 -4 29 -66 29 l-62 0 0 -365 0 -365 76 -3 c62 -2 77 0 82
13 4 9 -1 23 -9 33 -13 14 -16 49 -16 202 0 102 2 207 5 233 7 60 41 101 117
141 65 34 112 31 152 -12 42 -45 47 -86 43 -359 l-3 -254 75 3 c69 3 75 5 72
23 -2 11 -5 149 -5 307 -2 257 -4 288 -20 305 -9 11 -17 26 -17 34 0 17 -78
80 -94 77 -6 -1 -51 -4 -101 -5z"></path>
</g>
</svg>